<svg id="visual" viewBox="0 0 960 300" width="960" height="300" xmlns="http://www.w3.org/2000/svg" xmlns:xlink="http://www.w3.org/1999/xlink" version="1.1">
<path d="M0 93L40 111C80 129 160 165 240 181.5C320 198 400 195 480 175.3C560 155.7 640 119.3 720 121.2C800 123 880 163 920 183L960 203L960 301L920 301C880 301 800 301 720 301C640 301 560 301 480 301C400 301 320 301 240 301C160 301 80 301 40 301L0 301Z" fill="#143f67" stroke-linecap="round" stroke-linejoin="miter">
<animate
      attributeName="d"
      dur="25s"
      begin="0s"
      values="M0 93L40 111C80 129 160 165 240 181.5C320 198 400 195 480 175.3C560 155.7 640 119.3 720 121.2C800 123 880 163 920 183L960 203L960 301L920 301C880 301 800 301 720 301C640 301 560 301 480 301C400 301 320 301 240 301C160 301 80 301 40 301L0 301Z;
              M0 192L40 177.3C80 162.7 160 133.3 240 116.5C320 99.7 400 95.3 480 107.5C560 119.7 640 148.3 720 169.8C800 191.3 880 205.7 920 212.8L960 220L960 301L920 301C880 301 800 301 720 301C640 301 560 301 480 301C400 301 320 301 240 301C160 301 80 301 40 301L0 301Z;
              M0 93L40 111C80 129 160 165 240 181.5C320 198 400 195 480 175.3C560 155.7 640 119.3 720 121.2C800 123 880 163 920 183L960 203L960 301L920 301C880 301 800 301 720 301C640 301 560 301 480 301C400 301 320 301 240 301C160 301 80 301 40 301L0 301Z"
      repeatCount="indefinite"
    />
</path>
</svg>