<svg id="visual" viewBox="0 0 900 250" width="900" height="250" xmlns="http://www.w3.org/2000/svg" xmlns:xlink="http://www.w3.org/1999/xlink" version="1.1">
<path d="M0 113L37.5 108.3C75 103.7 150 94.3 225 103.5C300 112.7 375 140.3 450 152.5C525 164.7 600 161.3 675 143.2C750 125 825 92 862.5 75.5L900 59L900 251L862.5 251C825 251 750 251 675 251C600 251 525 251 450 251C375 251 300 251 225 251C150 251 75 251 37.5 251L0 251Z" fill="#103252" stroke-linecap="round" stroke-linejoin="miter">
<animate
      attributeName="d"
      dur="25s"
      begin="0s"
      values="M0 113L37.5 108.3C75 103.7 150 94.3 225 103.5C300 112.7 375 140.3 450 152.5C525 164.7 600 161.3 675 143.2C750 125 825 92 862.5 75.5L900 59L900 251L862.5 251C825 251 750 251 675 251C600 251 525 251 450 251C375 251 300 251 225 251C150 251 75 251 37.5 251L0 251Z;
              M0 81L37.5 75.2C75 69.3 150 57.7 225 61.7C300 65.7 375 85.3 450 105.7C525 126 600 147 675 144.7C750 142.3 825 116.7 862.5 103.8L900 91L900 251L862.5 251C825 251 750 251 675 251C600 251 525 251 450 251C375 251 300 251 225 251C150 251 75 251 37.5 251L0 251Z;
              M0 113L37.5 108.3C75 103.7 150 94.3 225 103.5C300 112.7 375 140.3 450 152.5C525 164.7 600 161.3 675 143.2C750 125 825 92 862.5 75.5L900 59L900 251L862.5 251C825 251 750 251 675 251C600 251 525 251 450 251C375 251 300 251 225 251C150 251 75 251 37.5 251L0 251Z"
      repeatCount="indefinite"
    />
</path>
</svg>