<svg id="visual" viewBox="0 0 200 200" width="200" height="200" xmlns="http://www.w3.org/2000/svg" xmlns:xlink="http://www.w3.org/1999/xlink" version="1.1">
<g transform="translate(90.26961439566529 116.34537382120106)">
<path d="M29.9 -41.8C45.1 -30.1 68.2 -29.9 78.3 -20.4C88.4 -10.8 85.6 8 76.9 22C68.3 36 53.8 45.1 40 47.8C26.3 50.5 13.1 46.7 1.8 44.3C-9.6 41.9 -19.2 40.8 -31.9 37.7C-44.6 34.7 -60.3 29.7 -64.2 20.3C-68.2 10.8 -60.2 -3.1 -54.1 -16.2C-48 -29.4 -43.7 -41.8 -35 -55.6C-26.3 -69.5 -13.1 -84.7 -2.9 -80.8C7.3 -76.8 14.7 -53.6 29.9 -41.8" fill="#A09BE7"></path></g></svg>