<svg id="visual" viewBox="0 0 960 300" width="960" height="300" xmlns="http://www.w3.org/2000/svg" xmlns:xlink="http://www.w3.org/1999/xlink" version="1.1"><rect x="0" y="0" width="960" height="300" fill="#87CEEB"></rect><path d="M0 106L16 102.3C32 98.7 64 91.3 96 90.5C128 89.7 160 95.3 192 98.7C224 102 256 103 288 98.7C320 94.3 352 84.7 384 78.5C416 72.3 448 69.7 480 76C512 82.3 544 97.7 576 104.2C608 110.7 640 108.3 672 96.7C704 85 736 64 768 59.8C800 55.7 832 68.3 864 79.5C896 90.7 928 100.3 944 105.2L960 110L960 301L944 301C928 301 896 301 864 301C832 301 800 301 768 301C736 301 704 301 672 301C640 301 608 301 576 301C544 301 512 301 480 301C448 301 416 301 384 301C352 301 320 301 288 301C256 301 224 301 192 301C160 301 128 301 96 301C64 301 32 301 16 301L0 301Z" fill="#3beaf5"></path><path d="M0 110L16 111.7C32 113.3 64 116.7 96 119.8C128 123 160 126 192 126.5C224 127 256 125 288 120.8C320 116.7 352 110.3 384 111.2C416 112 448 120 480 129.2C512 138.3 544 148.7 576 143.7C608 138.7 640 118.3 672 114.8C704 111.3 736 124.7 768 135.8C800 147 832 156 864 151.3C896 146.7 928 128.3 944 119.2L960 110L960 301L944 301C928 301 896 301 864 301C832 301 800 301 768 301C736 301 704 301 672 301C640 301 608 301 576 301C544 301 512 301 480 301C448 301 416 301 384 301C352 301 320 301 288 301C256 301 224 301 192 301C160 301 128 301 96 301C64 301 32 301 16 301L0 301Z" fill="#00b5d9"></path><path d="M0 207L16 208C32 209 64 211 96 202.8C128 194.7 160 176.3 192 169.3C224 162.3 256 166.7 288 175.3C320 184 352 197 384 204C416 211 448 212 480 207.3C512 202.7 544 192.3 576 189.8C608 187.3 640 192.7 672 190.3C704 188 736 178 768 172.5C800 167 832 166 864 164.5C896 163 928 161 944 160L960 159L960 301L944 301C928 301 896 301 864 301C832 301 800 301 768 301C736 301 704 301 672 301C640 301 608 301 576 301C544 301 512 301 480 301C448 301 416 301 384 301C352 301 320 301 288 301C256 301 224 301 192 301C160 301 128 301 96 301C64 301 32 301 16 301L0 301Z" fill="#0481b1"></path><path d="M0 242L16 239.5C32 237 64 232 96 229.2C128 226.3 160 225.7 192 227.8C224 230 256 235 288 235.7C320 236.3 352 232.7 384 234.7C416 236.7 448 244.3 480 245C512 245.7 544 239.3 576 239.2C608 239 640 245 672 248.2C704 251.3 736 251.7 768 245.7C800 239.7 832 227.3 864 221.8C896 216.3 928 217.7 944 218.3L960 219L960 301L944 301C928 301 896 301 864 301C832 301 800 301 768 301C736 301 704 301 672 301C640 301 608 301 576 301C544 301 512 301 480 301C448 301 416 301 384 301C352 301 320 301 288 301C256 301 224 301 192 301C160 301 128 301 96 301C64 301 32 301 16 301L0 301Z" fill="#1a5082"></path></svg>